<?xml version="1.0" encoding="UTF-8"?>
<svg id="Layer_2" data-name="Layer 2" xmlns="http://www.w3.org/2000/svg" viewBox="0 0 398.16 450.36">
  <defs>
    <style>
      .cls-1 {
        fill: #e63946;
      }

      .cls-2 {
        fill: #000030;
      }

      .cls-3 {
        fill: #457b9d;
      }

      .cls-4 {
        fill: #1d3557;
      }
    </style>
  </defs>
  <g id="Layer_1-2" data-name="Layer 1">
    <path class="cls-1" d="M392.42,105.21c-.04,1.65-.19,3.3-.46,4.93l-5.34,32.3c-18.45,111.5-75.79,212.85-161.87,286.09l-25.67,21.82-25.68-21.82C87.33,355.29,29.99,253.95,11.54,142.44l-5.34-32.3c-.27-1.63-.42-3.28-.46-4.93l-1.2-51.44C3.99,30.64,25.5,13.24,47.99,18.66c49.48,11.92,125.71,23.07,151.09-12.74,25.38,35.81,101.61,24.66,151.09,12.74,22.49-5.42,44,11.98,43.46,35.11l-1.2,51.44Z"/>
    <g>
      <g>
        <path class="cls-3" d="M68.56,160.06c-19.9-20.59-35.61-42.8-45.44-64.24-11.41-24.87-15.11-48.5-10.99-70.23l2.24-11.82,11.41,3.82c42.39,14.19,77.22,28.07,107.4,66.03l6.54,8.23-39.51,31.36-20.66,48.21-10.98-11.36Z"/>
        <path class="cls-2" d="M22.45,27.55c43.8,14.66,75.05,28.06,102.51,62.61l-33.36,26.48-15.48,36.13C39.62,114.99,14.64,68.76,22.45,27.55M6.3,0L1.82,23.64c-4.53,23.91-.57,49.67,11.76,76.56,10.32,22.5,26.72,45.72,47.43,67.16l21.96,22.72,12.45-29.04,13.39-31.25,29.2-23.18,16.46-13.06-13.08-16.45c-14.7-18.49-30.96-32.46-51.19-43.95C72.24,22.94,52.79,15.57,29.12,7.64L6.3,0h0Z"/>
      </g>
      <g>
        <path class="cls-3" d="M297.96,123.21l-39.51-31.36,6.54-8.23c30.18-37.96,65-51.84,107.4-66.03l11.41-3.82,2.24,11.82c4.12,21.72.42,45.35-10.99,70.23-9.83,21.43-25.54,43.65-45.44,64.24l-10.98,11.36-20.66-48.21Z"/>
        <path class="cls-2" d="M375.71,27.55c7.81,41.2-17.17,87.44-53.67,125.21l-15.48-36.13-33.36-26.48c27.46-34.54,58.71-47.94,102.51-62.61M391.87,0l-22.82,7.64c-23.68,7.93-43.13,15.3-61.09,25.5-20.23,11.49-36.49,25.46-51.19,43.95l-13.08,16.45,16.46,13.06,29.2,23.18,13.39,31.25,12.45,29.04,21.96-22.72c20.71-21.43,37.11-44.66,47.43-67.16,12.34-26.89,16.29-52.65,11.76-76.56l-4.48-23.64h0Z"/>
      </g>
    </g>
    <g>
      <path class="cls-4" d="M199.08,369.79c-12.39,0-24.5-4.33-34.09-12.19-9.6-7.87-16.21-18.9-18.64-31.04l-10.68-53.45c-.86-4.29-2.54-8.3-4.99-11.92l-18.39-27.19c-12.22-18.06-20.96-37.99-25.98-59.23-1.44-6.04-2.58-12.29-3.39-18.58l-.87-6.83c-1.65-12.88,1.41-25.92,8.64-36.72,6.25-9.37,15.14-16.43,25.69-20.41l11.7-4.42c22.77-8.61,46.66-12.97,71.01-12.97s48.24,4.36,71.01,12.97l11.69,4.42c10.54,3.98,19.43,11.05,25.7,20.43,7.21,10.78,10.27,23.81,8.63,36.7l-.87,6.82c-.81,6.29-1.95,12.54-3.39,18.6-5.02,21.23-13.77,41.16-25.99,59.22l-18.38,27.18c-2.45,3.63-4.13,7.64-4.99,11.94l-10.69,53.44c-5,25.05-27.18,43.23-52.73,43.23Z"/>
      <path class="cls-2" d="M199.08,85.34c22.81,0,45.61,4.1,67.3,12.29l11.69,4.42c8.69,3.28,15.8,9.13,20.68,16.44,5.65,8.45,8.31,18.87,6.95,29.54l-.87,6.82c-.76,5.9-1.82,11.74-3.19,17.5-4.7,19.87-12.97,38.77-24.47,55.76l-18.38,27.19c-3.22,4.76-5.46,10.12-6.59,15.75l-10.69,53.45c-4.04,20.23-21.8,34.79-42.43,34.79-10.32,0-19.91-3.64-27.44-9.81-7.52-6.17-12.98-14.87-15-24.98l-10.68-53.45c-1.13-5.63-3.37-10.99-6.59-15.75l-18.39-27.19c-11.49-16.99-19.76-35.89-24.46-55.76-1.37-5.76-2.43-11.6-3.19-17.5l-.87-6.82c-1.37-10.67,1.29-21.09,6.95-29.55,4.88-7.31,11.99-13.15,20.67-16.43l11.7-4.42c21.69-8.2,44.49-12.29,67.3-12.29M199.08,64.34c-25.62,0-50.76,4.59-74.72,13.65l-11.7,4.42c-12.61,4.77-23.23,13.21-30.71,24.42-8.62,12.89-12.29,28.48-10.31,43.88l.87,6.8c.86,6.67,2.07,13.29,3.59,19.7,5.31,22.45,14.56,43.54,27.49,62.66l18.39,27.19c1.67,2.46,2.81,5.19,3.4,8.12l10.68,53.43c2.9,14.52,10.81,27.7,22.27,37.1,11.47,9.4,25.95,14.58,40.76,14.58s29.29-5.17,40.75-14.57c11.46-9.4,19.37-22.57,22.27-37.11l10.69-53.44c.58-2.91,1.73-5.64,3.39-8.1l18.38-27.2c12.93-19.11,22.19-40.2,27.51-62.69,1.52-6.38,2.73-13,3.58-19.65l.87-6.85c1.96-15.4-1.7-30.98-10.32-43.87-7.48-11.21-18.11-19.65-30.72-24.41l-11.68-4.42c-23.97-9.06-49.11-13.65-74.73-13.65h0Z"/>
    </g>
    <path class="cls-3" d="M305.7,148.03l-.87,6.82c-.76,5.9-1.82,11.74-3.19,17.5l-20.36,9.75c-16.64,7.97-32.53,17.57-46.7,29.39-10.2,8.5-22.85,12.74-35.5,12.74s-25.3-4.24-35.5-12.74c-14.17-11.82-30.06-21.42-46.7-29.39l-20.36-9.75c-1.37-5.76-2.43-11.6-3.19-17.5l-.87-6.82c-1.37-10.67,1.29-21.09,6.95-29.55,4.88-7.31,11.99-13.15,20.67-16.43l11.7-4.42c43.37-16.39,91.23-16.39,134.6,0l11.69,4.42c8.69,3.28,15.8,9.13,20.68,16.44,5.65,8.45,8.31,18.87,6.95,29.54Z"/>
  </g>
</svg>